<?xml version="1.0" encoding="UTF-8"?>
<svg id="Layer_2" xmlns="http://www.w3.org/2000/svg" viewBox="0 0 105.35 82.33">
  <defs>
    <style>
      .cls-1, .cls-2 {
        fill: #fff;
      }

      .cls-3, .cls-2 {
        opacity: .15;
      }

      .cls-3, .cls-4 {
        fill: #61c5ff;
      }

      .cls-5 {
        fill: #110e42;
      }

      .cls-6 {
        fill: #00a360;
      }

      .cls-7 {
        fill: #42add4;
      }

      .cls-8 {
        fill: #d1d1d1;
      }
    </style>
  </defs>
  <g id="OBJECTS">
    <g>
      <g>
        <path class="cls-5" d="M53.17,12.58h-.25c3.47,0,6.29-2.82,6.29-6.29s-2.82-6.29-6.29-6.29h.25c-3.47,0-6.29,2.82-6.29,6.29s2.82,6.29,6.29,6.29Z"/>
        <path class="cls-5" d="M96.66,67.58h-12.15c-3.47,0-6.29-2.82-6.29-6.29s2.82-6.29,6.29-6.29h1.05c3.47,0,6.29-2.82,6.29-6.29s-2.82-6.29-6.29-6.29h-27.45c-3.47,0-6.29-2.82-6.29-6.29s2.82-6.29,6.29-6.29h1.05c3.47,0,6.29-2.82,6.29-6.29s-2.82-6.29-6.29-6.29H12.11c-3.47,0-6.29,2.82-6.29,6.29s2.82,6.29,6.29,6.29h1.05c3.47,0,6.29,2.82,6.29,6.29s-2.82,6.29-6.29,6.29h-6.87c-3.47,0-6.29,2.82-6.29,6.29s2.82,6.29,6.29,6.29h33.27c3.47,0,6.29,2.82,6.29,6.29s-2.82,6.29-6.29,6.29h-21.7c-3.47,0-6.29,2.82-6.29,6.29s2.82,6.29,6.29,6.29h78.81c3.47,0,6.29-2.82,6.29-6.29s-2.82-6.29-6.29-6.29Z"/>
      </g>
      <g>
        <circle class="cls-3" cx="51.48" cy="49.21" r="33.12" transform="translate(-8.38 87.8) rotate(-76.52)"/>
        <circle class="cls-3" cx="51.48" cy="49.26" r="28.27" transform="translate(-8.4 87.87) rotate(-76.55)"/>
        <g>
          <circle class="cls-4" cx="51.48" cy="49.18" r="23.04"/>
          <path class="cls-7" d="M37.99,49.18c0-11.09,7.83-20.34,18.26-22.54-1.54-.33-3.14-.5-4.78-.5-12.72,0-23.04,10.32-23.04,23.04s10.31,23.04,23.04,23.04c1.64,0,3.24-.17,4.78-.5-10.43-2.2-18.26-11.45-18.26-22.54Z"/>
        </g>
        <g>
          <path class="cls-6" d="M66.64,58c-.54,0-.98.44-.98.98v1.85c0,.54.44.98.98.98s.98-.44.98-.98v-1.85c0-.54-.44-.98-.98-.98Z"/>
          <path class="cls-6" d="M58.74,27.32c-1.18.77-1.97,2.07-1.97,3.58v3.2h-1.24c-.62-.78-1.56-1.29-2.63-1.29-1.85,0-3.37,1.52-3.37,3.37v3.81c0,.5.11.96.31,1.39-.03,0-.05,0-.08,0-.81,0-1.47.66-1.47,1.47v1.04c0,.34.12.64.31.89-2.23.7-3.85,2.79-3.85,5.24,0,2.86,2.21,5.22,5.01,5.47v.43c0,1.32,1,2.41,2.27,2.58v1.94c0,2.84,2.32,5.17,5.17,5.17h.87c2.84,0,5.17-2.32,5.17-5.17v-9.72c0-.12-.03-.24-.04-.35,0-.12.04-.23.04-.35,0-3.02-2.47-5.5-5.5-5.5h-6.66c.1-.19.15-.41.15-.64v-.98c.49.29,1.06.46,1.67.46,1.85,0,3.37-1.52,3.37-3.37v-1.58h.99s.06-.01.09-.02c.75,1.31,2.14,2.21,3.75,2.21h3.73c.27,1.98,1.97,3.53,4.02,3.53h.88c.34,0,.66-.05.98-.13v1.68c0,2.15,1.69,3.9,3.8,4.05,0-.18.03-.35.03-.53,0-10.19-6.63-18.83-15.8-21.86Z"/>
        </g>
      </g>
      <g>
        <circle class="cls-2" cx="95.78" cy="22.72" r="9.57"/>
        <circle class="cls-2" cx="95.78" cy="22.73" r="8.17" transform="translate(48.93 109.3) rotate(-74.93)"/>
        <g>
          <circle class="cls-1" cx="95.74" cy="22.71" r="6.66" transform="translate(58.29 113.7) rotate(-80.97)"/>
          <path class="cls-8" d="M91.84,22.71c0-3.2,2.26-5.88,5.28-6.51-.45-.09-.91-.14-1.38-.14-3.68,0-6.66,2.98-6.66,6.66s2.98,6.66,6.66,6.66c.47,0,.94-.05,1.38-.14-3.01-.64-5.28-3.31-5.28-6.51Z"/>
        </g>
        <path class="cls-8" d="M95.34,24.33c0,.4-.32.73-.73.73s-.73-.32-.73-.73.32-.73.73-.73.73.32.73.73Z"/>
        <path class="cls-8" d="M100.22,20.51c0,.59-.48,1.06-1.06,1.06s-1.06-.48-1.06-1.06.48-1.06,1.06-1.06,1.06.48,1.06,1.06Z"/>
        <path class="cls-8" d="M97.21,26.35c0,.59-.48,1.06-1.06,1.06s-1.06-.48-1.06-1.06.48-1.06,1.06-1.06,1.06.48,1.06,1.06Z"/>
      </g>
    </g>
  </g>
</svg>