<?xml version="1.0" encoding="UTF-8"?>
<svg id="Layer_2" xmlns="http://www.w3.org/2000/svg" viewBox="0 0 68.62 68.62">
  <defs>
    <style>
      .cls-1 {
        fill: #c42d21;
      }

      .cls-2, .cls-3 {
        fill: #ff3b2b;
      }

      .cls-3 {
        opacity: .15;
      }
    </style>
  </defs>
  <g id="OBJECTS">
    <g>
      <circle class="cls-3" cx="34.31" cy="34.31" r="34.31"/>
      <circle class="cls-3" cx="34.31" cy="34.36" r="29.28"/>
      <path class="cls-2" d="M58.05,35.86s-.04,0-.06,0c.03-.52.06-1.05.06-1.58,0-7.35-3.33-13.92-8.55-18.3.1-.12.2-.25.29-.4h0c.73-1.26.29-2.89-.97-3.62l-1.05-.61c-1.26-.73-2.89-.29-3.62.97-.04.07-.07.15-.1.22-3-1.36-6.34-2.13-9.85-2.13-13.18,0-23.86,10.68-23.86,23.86s10.68,23.86,23.86,23.86c3.85,0,7.48-.92,10.69-2.53.85,1.08,2.41,1.35,3.56.57l1.01-.68c1.17-.79,1.49-2.36.78-3.55,2.9-2.63,5.14-5.97,6.47-9.74.12.04.23.07.36.09,1.17.18,2.28-.63,2.46-1.8l.34-2.18c.18-1.17-.63-2.28-1.8-2.46Z"/>
      <g>
        <path class="cls-1" d="M42.32,46.61c0,.97-.78,1.75-1.75,1.75s-1.75-.78-1.75-1.75.78-1.75,1.75-1.75,1.75.78,1.75,1.75Z"/>
        <path class="cls-1" d="M50.21,26.39c0,2.1-1.7,3.81-3.81,3.81s-3.81-1.7-3.81-3.81,1.7-3.81,3.81-3.81,3.81,1.7,3.81,3.81Z"/>
        <path class="cls-1" d="M26.8,30.64c-2.1,0-3.81,1.7-3.81,3.81s1.7,3.81,3.81,3.81,3.81-1.7,3.81-3.81-1.7-3.81-3.81-3.81ZM27.62,35.84c-.77.45-1.76.2-2.21-.57-.45-.77-.2-1.76.57-2.21.77-.45,1.76-.2,2.21.57.45.77.2,1.76-.57,2.21Z"/>
        <path class="cls-1" d="M34.63,48.77c0-3.07-2.49-5.56-5.56-5.56-2.41,0-4.46,1.54-5.23,3.68-2.29-3.66-3.63-7.98-3.63-12.62,0-11.48,8.11-21.07,18.92-23.35-1.6-.34-3.25-.52-4.95-.52-7.27,0-13.78,3.26-18.16,8.39-.92-.32-1.98.02-2.52.87l-1.18,1.86c-.54.85-.41,1.93.25,2.63-1.44,3.07-2.25,6.5-2.25,10.12,0,.55.03,1.1.06,1.64h0c-1.44.24-2.42,1.61-2.18,3.05l.2,1.2c.24,1.44,1.61,2.42,3.05,2.18h0c.09-.01.16-.05.25-.07,3.29,9.24,12.11,15.86,22.48,15.86,1.7,0,3.35-.18,4.95-.52-3.04-.64-5.86-1.88-8.36-3.56,2.24-.72,3.86-2.81,3.86-5.29Z"/>
        <path class="cls-1" d="M40.99,35.6c-.22-.92-.96-1.67-1.88-1.89-.53-.13-1.03-.1-1.49.06-.28.1-.26.52.04.59.18.04.35.1.53.19.28.14.52.34.71.59.14.17.23.37.27.59.04.21.05.44.02.68-.08.6-.46,1.14-.99,1.44-.25.14-.51.22-.76.25-.28.03-.34.43-.08.54.24.11.5.17.77.19.11.01.21.02.33.02,1.64,0,2.93-1.52,2.53-3.24Z"/>
        <path class="cls-1" d="M40.21,17.9c-.13-.54-.56-.97-1.09-1.1-.31-.07-.6-.06-.87.03-.16.06-.15.31.02.34.1.02.21.06.31.11.16.08.3.2.41.34.08.1.13.22.16.34.02.12.03.26.01.39-.05.35-.27.67-.57.84-.15.08-.3.13-.44.14-.16.02-.2.25-.05.32.14.06.29.1.45.11.06,0,.12.01.19.01.96,0,1.71-.89,1.47-1.88Z"/>
      </g>
    </g>
  </g>
</svg>