<?xml version="1.0" encoding="UTF-8"?>
<svg id="Layer_2" xmlns="http://www.w3.org/2000/svg" viewBox="0 0 55.6 43.29">
  <defs>
    <style>
      .cls-1 {
        opacity: .15;
      }

      .cls-1, .cls-2 {
        fill: #e3c366;
      }

      .cls-3 {
        fill: #9f812b;
      }

      .cls-4 {
        fill: #110e42;
      }
    </style>
  </defs>
  <g id="OBJECTS">
    <g>
      <g>
        <path class="cls-4" d="M28.72,6.79h-.14c1.88,0,3.4-1.52,3.4-3.4s-1.52-3.4-3.4-3.4h.14c-1.88,0-3.4,1.52-3.4,3.4s1.52,3.4,3.4,3.4Z"/>
        <path class="cls-4" d="M52.21,36.5h-6.56c-1.88,0-3.4-1.52-3.4-3.4s1.52-3.4,3.4-3.4h.57c1.88,0,3.4-1.52,3.4-3.4s-1.52-3.4-3.4-3.4h-14.82c-1.88,0-3.4-1.52-3.4-3.4s1.52-3.4,3.4-3.4h.57c1.88,0,3.4-1.52,3.4-3.4s-1.52-3.4-3.4-3.4H6.54c-1.88,0-3.4,1.52-3.4,3.4s1.52,3.4,3.4,3.4h.57c1.88,0,3.4,1.52,3.4,3.4s-1.52,3.4-3.4,3.4h-3.71c-1.88,0-3.4,1.52-3.4,3.4s1.52,3.4,3.4,3.4h17.97c1.88,0,3.4,1.52,3.4,3.4s-1.52,3.4-3.4,3.4h-11.72c-1.88,0-3.4,1.52-3.4,3.4s1.52,3.4,3.4,3.4h42.56c1.88,0,3.4-1.52,3.4-3.4s-1.52-3.4-3.4-3.4Z"/>
      </g>
      <circle class="cls-1" cx="27.8" cy="26.82" r="13.92"/>
      <circle class="cls-1" cx="27.8" cy="26.84" r="11.88" transform="translate(-8.11 12.58) rotate(-22.33)"/>
      <path class="cls-2" d="M37.06,23.2l.07-.03c.31-.14.45-.51.31-.83l-.5-1.1c-.14-.31-.51-.45-.83-.31l-.07.03c-.16.07-.27.2-.33.36-.2-.29-.41-.56-.64-.82.1-.04.2-.09.27-.18l.05-.06c.22-.26.18-.66-.08-.88l-.93-.78c-.26-.22-.66-.18-.88.08l-.05.06c-.05.06-.08.12-.1.19-1.58-1.13-3.52-1.8-5.61-1.8-5.35,0-9.68,4.34-9.68,9.68s4.33,9.68,9.68,9.68c1.5,0,2.91-.35,4.18-.96,0,.13.02.27.09.38l.04.07c.19.29.58.36.87.17l1-.68c.29-.19.36-.58.17-.87l-.04-.07c-.06-.09-.15-.15-.24-.2,2.2-1.78,3.61-4.49,3.61-7.53,0-1.26-.25-2.46-.69-3.57.11.01.21,0,.32-.04Z"/>
      <g>
        <path class="cls-3" d="M22.08,26.81c0-1.01.16-1.99.45-2.9.45.74,1.26,1.25,2.2,1.25,1.42,0,2.58-1.15,2.58-2.58s-1.08-2.49-2.43-2.56c1.31-1.32,2.99-2.28,4.88-2.67-.65-.14-1.32-.21-2.01-.21-1.82,0-3.52.51-4.97,1.39,0-.12-.04-.23-.11-.34l-.05-.06c-.21-.27-.6-.33-.88-.12l-.96.73c-.27.21-.33.6-.12.88l.05.06c.08.1.19.16.3.2-1.81,1.76-2.94,4.22-2.94,6.94,0,5.35,4.33,9.68,9.68,9.68.69,0,1.36-.07,2.01-.21-4.38-.92-7.68-4.81-7.68-9.47ZM25.58,22.58c0,.47-.38.84-.84.84s-.84-.38-.84-.84.38-.84.84-.84.84.38.84.84Z"/>
        <path class="cls-3" d="M25.06,29.18c0,.58.47,1.05,1.05,1.05s1.05-.47,1.05-1.05-.47-1.05-1.05-1.05-1.05.47-1.05,1.05Z"/>
        <path class="cls-3" d="M28.34,30.56c-.85,0-1.54.69-1.54,1.54s.69,1.54,1.54,1.54,1.54-.69,1.54-1.54-.69-1.54-1.54-1.54Z"/>
        <path class="cls-3" d="M32.71,22.07c-.85,0-1.54.69-1.54,1.54s.69,1.54,1.54,1.54,1.54-.69,1.54-1.54-.69-1.54-1.54-1.54ZM32.71,24.16c-.3,0-.55-.25-.55-.55s.25-.55.55-.55.55.25.55.55-.25.55-.55.55Z"/>
      </g>
    </g>
  </g>
</svg>