<?xml version="1.0" encoding="UTF-8"?>
<svg id="Layer_2" xmlns="http://www.w3.org/2000/svg" viewBox="0 0 61.78 61.78">
  <defs>
    <style>
      .cls-1 {
        opacity: .15;
      }

      .cls-1, .cls-2 {
        fill: #08fff3;
      }

      .cls-3 {
        fill: #05ada5;
      }
    </style>
  </defs>
  <g id="OBJECTS">
    <g>
      <circle class="cls-1" cx="30.89" cy="30.89" r="30.89" transform="translate(-6.07 54.18) rotate(-77.22)"/>
      <circle class="cls-1" cx="30.89" cy="30.93" r="26.36" transform="translate(-6.12 54.2) rotate(-77.2)"/>
      <circle class="cls-2" cx="30.89" cy="30.8" r="21.32" transform="translate(-.34 61.25) rotate(-89.2)"/>
      <g>
        <path class="cls-3" d="M24.97,36.01c0,1.28,1.04,2.32,2.32,2.32s2.32-1.04,2.32-2.32-1.04-2.32-2.32-2.32-2.32,1.04-2.32,2.32Z"/>
        <path class="cls-3" d="M43.51,22.05c-.94,0-1.7.76-1.7,1.7s.76,1.7,1.7,1.7,1.7-.76,1.7-1.7-.76-1.7-1.7-1.7Z"/>
        <path class="cls-3" d="M38.34,41.03h-3.08c-.54-1.16-1.71-1.97-3.08-1.97s-2.54.81-3.08,1.97h-8.07c-1.67-3.04-2.63-6.52-2.63-10.23,0-.74.05-1.46.12-2.18h11.37c.55,0,.99-.44.99-.99s-.44-.99-.99-.99h-11.07c.13-.65.29-1.28.47-1.91h7.01c.55,0,.99-.44.99-.99s-.44-.99-.99-.99h-6.31c.34-.84.72-1.66,1.16-2.44h11.02c.55,0,.99-.44.99-.99s-.44-.99-.99-.99h-9.74c3.05-4.22,7.59-7.3,12.87-8.41-1.43-.3-2.9-.46-4.42-.46-11.78,0-21.32,9.55-21.32,21.32s9.55,21.32,21.32,21.32c1.52,0,2.99-.16,4.42-.46-5.03-1.06-9.4-3.91-12.43-7.83h6.2c.53,1.19,1.72,2.03,3.11,2.03s2.58-.84,3.11-2.03h3.05c.77,0,1.4-.63,1.4-1.4s-.63-1.4-1.4-1.4Z"/>
      </g>
    </g>
  </g>
</svg>