<?xml version="1.0" encoding="UTF-8"?>
<svg id="Layer_2" xmlns="http://www.w3.org/2000/svg" viewBox="0 0 103.5 63.22">
  <defs>
    <style>
      .cls-1 {
        opacity: .15;
      }

      .cls-1, .cls-2 {
        fill: #08fff3;
      }

      .cls-3 {
        fill: #05ada5;
      }

      .cls-4 {
        fill: #110e42;
      }
    </style>
  </defs>
  <g id="OBJECTS">
    <g>
      <path class="cls-4" d="M97.17,50.58h-12.21c-3.49,0-6.32-2.83-6.32-6.32s2.83-6.32,6.32-6.32h1.05c3.49,0,6.32-2.83,6.32-6.32s-2.83-6.32-6.32-6.32h-27.59c-3.49,0-6.32-2.83-6.32-6.32s2.83-6.32,6.32-6.32h1.05c3.49,0,6.32-2.83,6.32-6.32s-2.83-6.32-6.32-6.32H12.18c-3.49,0-6.32,2.83-6.32,6.32s2.83,6.32,6.32,6.32h1.05c3.49,0,6.32,2.83,6.32,6.32s-2.83,6.32-6.32,6.32h-6.91c-3.49,0-6.32,2.83-6.32,6.32s2.83,6.32,6.32,6.32h33.44c3.49,0,6.32,2.83,6.32,6.32s-2.83,6.32-6.32,6.32h-21.82c-3.49,0-6.32,2.83-6.32,6.32s2.83,6.32,6.32,6.32h79.22c3.49,0,6.32-2.83,6.32-6.32s-2.83-6.32-6.32-6.32Z"/>
      <circle class="cls-1" cx="50.59" cy="31.77" r="30.89" transform="translate(8.42 74.08) rotate(-77.22)"/>
      <circle class="cls-1" cx="50.59" cy="31.81" r="26.36" transform="translate(8.36 74.1) rotate(-77.2)"/>
      <circle class="cls-2" cx="50.59" cy="31.68" r="21.32" transform="translate(18.2 81.82) rotate(-89.2)"/>
      <g>
        <path class="cls-3" d="M44.67,36.89c0,1.28,1.04,2.32,2.32,2.32s2.32-1.04,2.32-2.32-1.04-2.32-2.32-2.32-2.32,1.04-2.32,2.32Z"/>
        <path class="cls-3" d="M63.21,22.93c-.94,0-1.7.76-1.7,1.7s.76,1.7,1.7,1.7,1.7-.76,1.7-1.7-.76-1.7-1.7-1.7Z"/>
        <path class="cls-3" d="M58.04,41.91h-3.08c-.54-1.16-1.71-1.97-3.08-1.97s-2.54.81-3.08,1.97h-8.07c-1.67-3.04-2.63-6.52-2.63-10.23,0-.74.05-1.46.12-2.18h11.37c.55,0,.99-.44.99-.99s-.44-.99-.99-.99h-11.07c.13-.65.29-1.28.47-1.91h7.01c.55,0,.99-.44.99-.99s-.44-.99-.99-.99h-6.31c.34-.84.72-1.66,1.16-2.44h11.02c.55,0,.99-.44.99-.99s-.44-.99-.99-.99h-9.74c3.05-4.22,7.59-7.3,12.87-8.41-1.43-.3-2.9-.46-4.42-.46-11.78,0-21.32,9.55-21.32,21.32s9.55,21.32,21.32,21.32c1.52,0,2.99-.16,4.42-.46-5.03-1.06-9.4-3.91-12.43-7.83h6.2c.53,1.19,1.72,2.03,3.11,2.03s2.58-.84,3.11-2.03h3.05c.77,0,1.4-.63,1.4-1.4s-.63-1.4-1.4-1.4Z"/>
      </g>
    </g>
  </g>
</svg>