<?xml version="1.0" encoding="UTF-8"?>
<svg id="Layer_2" xmlns="http://www.w3.org/2000/svg" viewBox="0 0 27.72 27.72">
  <defs>
    <style>
      .cls-1 {
        opacity: .15;
      }

      .cls-1, .cls-2 {
        fill: #e617a5;
      }

      .cls-3 {
        fill: #910063;
      }
    </style>
  </defs>
  <g id="OBJECTS">
    <g>
      <circle class="cls-1" cx="13.86" cy="13.86" r="13.86"/>
      <circle class="cls-1" cx="13.86" cy="13.88" r="11.83"/>
      <g>
        <circle class="cls-2" cx="13.81" cy="13.85" r="9.64" transform="translate(-4.25 6.34) rotate(-22.5)"/>
        <path class="cls-3" d="M8.17,13.85c0-4.64,3.28-8.51,7.64-9.43-.64-.14-1.31-.21-2-.21-5.32,0-9.64,4.32-9.64,9.64s4.32,9.64,9.64,9.64c.69,0,1.35-.07,2-.21-4.36-.92-7.64-4.79-7.64-9.43Z"/>
      </g>
      <circle class="cls-3" cx="12.18" cy="16.2" r="1.05"/>
      <path class="cls-3" d="M20.28,10.66c0,.85-.69,1.54-1.54,1.54s-1.54-.69-1.54-1.54.69-1.54,1.54-1.54,1.54.69,1.54,1.54Z"/>
      <path class="cls-3" d="M15.93,19.12c0,.85-.69,1.54-1.54,1.54s-1.54-.69-1.54-1.54.69-1.54,1.54-1.54,1.54.69,1.54,1.54Z"/>
    </g>
  </g>
</svg>