<?xml version="1.0" encoding="UTF-8"?>
<svg id="Layer_2" xmlns="http://www.w3.org/2000/svg" viewBox="0 0 55.6 43.29">
  <defs>
    <style>
      .cls-1 {
        opacity: .15;
      }

      .cls-1, .cls-2 {
        fill: #e617a5;
      }

      .cls-3 {
        fill: #910063;
      }

      .cls-4 {
        fill: #110e42;
      }
    </style>
  </defs>
  <g id="OBJECTS">
    <g>
      <g>
        <path class="cls-4" d="M28.72,6.79h-.14c1.88,0,3.4-1.52,3.4-3.4s-1.52-3.4-3.4-3.4h.14c-1.88,0-3.4,1.52-3.4,3.4s1.52,3.4,3.4,3.4Z"/>
        <path class="cls-4" d="M52.21,36.5h-6.56c-1.88,0-3.4-1.52-3.4-3.4s1.52-3.4,3.4-3.4h.57c1.88,0,3.4-1.52,3.4-3.4s-1.52-3.4-3.4-3.4h-14.82c-1.88,0-3.4-1.52-3.4-3.4s1.52-3.4,3.4-3.4h.57c1.88,0,3.4-1.52,3.4-3.4s-1.52-3.4-3.4-3.4H6.54c-1.88,0-3.4,1.52-3.4,3.4s1.52,3.4,3.4,3.4h.57c1.88,0,3.4,1.52,3.4,3.4s-1.52,3.4-3.4,3.4h-3.71c-1.88,0-3.4,1.52-3.4,3.4s1.52,3.4,3.4,3.4h17.97c1.88,0,3.4,1.52,3.4,3.4s-1.52,3.4-3.4,3.4h-11.72c-1.88,0-3.4,1.52-3.4,3.4s1.52,3.4,3.4,3.4h42.56c1.88,0,3.4-1.52,3.4-3.4s-1.52-3.4-3.4-3.4Z"/>
      </g>
      <g>
        <circle class="cls-1" cx="27.8" cy="25.44" r="13.86"/>
        <circle class="cls-1" cx="27.8" cy="25.46" r="11.83"/>
        <g>
          <circle class="cls-2" cx="27.75" cy="25.43" r="9.64" transform="translate(-7.62 12.56) rotate(-22.5)"/>
          <path class="cls-3" d="M22.11,25.43c0-4.64,3.28-8.51,7.64-9.43-.64-.14-1.31-.21-2-.21-5.32,0-9.64,4.32-9.64,9.64s4.32,9.64,9.64,9.64c.69,0,1.35-.07,2-.21-4.36-.92-7.64-4.79-7.64-9.43Z"/>
        </g>
        <circle class="cls-3" cx="26.13" cy="27.79" r="1.05"/>
        <path class="cls-3" d="M34.23,22.24c0,.85-.69,1.54-1.54,1.54s-1.54-.69-1.54-1.54.69-1.54,1.54-1.54,1.54.69,1.54,1.54Z"/>
        <path class="cls-3" d="M29.87,30.7c0,.85-.69,1.54-1.54,1.54s-1.54-.69-1.54-1.54.69-1.54,1.54-1.54,1.54.69,1.54,1.54Z"/>
      </g>
    </g>
  </g>
</svg>