<?xml version="1.0" encoding="UTF-8"?>
<svg id="Layer_2" xmlns="http://www.w3.org/2000/svg" viewBox="0 0 122.24 102.44">
  <defs>
    <style>
      .cls-1 {
        fill: #ff6c17;
      }

      .cls-2 {
        opacity: .15;
      }

      .cls-2, .cls-3 {
        fill: #ffb41c;
      }

      .cls-4 {
        fill: #522206;
      }

      .cls-5 {
        fill: #e3a018;
      }

      .cls-6 {
        fill: #cc9016;
      }

      .cls-7 {
        fill: #96400c;
      }
    </style>
  </defs>
  <g id="OBJECTS">
    <g>
      <circle class="cls-2" cx="59.81" cy="51.22" r="51.22" transform="translate(-14.73 25.85) rotate(-21.78)"/>
      <circle class="cls-2" cx="59.81" cy="51.3" r="43.72"/>
      <circle class="cls-3" cx="59.82" cy="51.61" r="34.5" transform="translate(-12.19 84.12) rotate(-65.09)"/>
      <path class="cls-4" d="M90.83,36.5c.23.47.45.96.66,1.44,0,.01,0,.02.01.03.21.5.41,1,.61,1.51,10.25-2.44,17.57-3.36,21.79-3.34,1.28-1.07,2.1-1.96,2.45-2.6-2.44-.96-11.11-.49-25.52,2.95Z"/>
      <path class="cls-4" d="M27.23,62.91c-.18-.51-.34-1.02-.5-1.53,0,0,0-.01,0-.02-.15-.51-.29-1.03-.42-1.54,0,0,0,0,0,0-13.28,6.56-20.25,11.75-21.51,14.05.69.27,1.88.42,3.55.43,3.23-2.72,9.44-6.68,18.89-11.36,0,0,0-.01,0-.02Z"/>
      <g>
        <path class="cls-6" d="M39.66,53.2h24.11c1,0,1.81-.81,1.81-1.81s-.81-1.81-1.81-1.81h-24.09c.07-1.13.19-2.25.36-3.35h11.24c1,0,1.81-.81,1.81-1.81s-.81-1.81-1.81-1.81h-10.48c3.34-12.44,13.47-22.1,26.17-24.78-2.31-.49-4.7-.75-7.15-.75-19.05,0-34.5,15.45-34.5,34.5s15.44,34.5,34.5,34.5c2.45,0,4.84-.26,7.15-.75-15.11-3.19-26.57-16.25-27.31-32.13Z"/>
        <path class="cls-6" d="M55.18,44.4c0,1.04.85,1.89,1.89,1.89s1.89-.85,1.89-1.89-.85-1.89-1.89-1.89-1.89.85-1.89,1.89Z"/>
      </g>
      <g>
        <path class="cls-5" d="M84.29,34.58h-24.13c-.93,0-1.69.76-1.69,1.69s.76,1.69,1.69,1.69h24.13c.93,0,1.69-.76,1.69-1.69s-.76-1.69-1.69-1.69Z"/>
        <path class="cls-5" d="M68.73,31.11c.93,0,1.69-.76,1.69-1.69s-.76-1.69-1.69-1.69h-13.67c-.93,0-1.69.76-1.69,1.69s.76,1.69,1.69,1.69h13.67Z"/>
        <path class="cls-5" d="M66.32,73.73h-10.19c-.71,0-1.29.58-1.29,1.28s.57,1.28,1.29,1.28h10.19c.71,0,1.29-.58,1.29-1.28s-.57-1.28-1.29-1.28Z"/>
      </g>
      <g>
        <path class="cls-1" d="M98.46,29.51c-3.24.59-6.74,1.36-10.42,2.27,1.08,1.54,2.05,3.18,2.88,4.91,13.84-3.27,22.19-3.71,24.56-2.78-2,3.64-18.58,14.67-52.25,26.84-33.68,12.17-53.48,14.29-57.34,12.77,1.22-2.22,7.87-7.18,20.48-13.48-.47-1.87-.78-3.75-.93-5.62-3.34,1.63-6.47,3.25-9.29,4.84C.31,68.16-.54,72.6.5,75.46c1.04,2.87,4.52,5.74,22.39,2.46,11.68-2.14,26.66-6.42,42.19-12.03,15.52-5.61,29.78-11.91,40.13-17.73,15.84-8.91,16.69-13.34,15.65-16.21s-4.52-5.74-22.39-2.46Z"/>
        <path class="cls-4" d="M105.21,48.17c-10.35,5.82-24.6,12.11-40.13,17.73-15.53,5.61-30.51,9.88-42.19,12.03-14.9,2.74-19.8,1.2-21.61-1.05,0,.58.13,1.1.3,1.58,1.04,2.87,4.52,5.74,22.39,2.46,11.68-2.14,26.66-6.42,42.19-12.03,15.52-5.61,29.78-11.91,40.13-17.73,15.84-8.91,16.69-13.34,15.65-16.21-.17-.48-.42-.95-.78-1.4.04,2.89-2.74,7.21-15.95,14.63Z"/>
        <path class="cls-7" d="M96.83,27.14c-3.27.6-6.82,1.38-10.56,2.3,1.23,1.46,2.33,3.05,3.32,4.73,13.52-3.18,21.7-3.61,24.01-2.7-1.97,3.58-18.31,14.46-51.49,26.45-33.19,12-52.7,14.08-56.5,12.58,1.2-2.18,7.75-7.08,20.19-13.28-.32-1.92-.48-3.85-.47-5.76-3.47,1.68-6.69,3.35-9.59,4.98C.11,65.24-.72,69.61.3,72.43c1.02,2.83,4.45,5.65,22.07,2.42,11.51-2.11,26.27-6.32,41.57-11.85,15.3-5.53,29.34-11.73,39.54-17.47,15.61-8.78,16.44-13.14,15.42-15.97-1.02-2.83-4.45-5.65-22.07-2.42Z"/>
      </g>
    </g>
  </g>
</svg>