<?xml version="1.0" encoding="UTF-8"?>
<svg id="Layer_2" xmlns="http://www.w3.org/2000/svg" viewBox="0 0 109.42 93.59">
  <defs>
    <style>
      .cls-1, .cls-2 {
        fill: #1cc4ff;
      }

      .cls-2 {
        opacity: .15;
      }

      .cls-3 {
        fill: #08fff3;
      }

      .cls-4 {
        fill: #110e42;
      }

      .cls-5 {
        fill: #2c94b8;
      }
    </style>
  </defs>
  <g id="OBJECTS">
    <g>
      <g>
        <path class="cls-4" d="M56.51,13.37h-.27c3.69,0,6.68-2.99,6.68-6.68s-2.99-6.68-6.68-6.68h.27c-3.69,0-6.68,2.99-6.68,6.68s2.99,6.68,6.68,6.68Z"/>
        <path class="cls-4" d="M102.74,71.83h-12.91c-3.69,0-6.68-2.99-6.68-6.68s2.99-6.68,6.68-6.68h1.11c3.69,0,6.68-2.99,6.68-6.68s-2.99-6.68-6.68-6.68h-29.17c-3.69,0-6.68-2.99-6.68-6.68s2.99-6.68,6.68-6.68h1.11c3.69,0,6.68-2.99,6.68-6.68s-2.99-6.68-6.68-6.68H12.87c-3.69,0-6.68,2.99-6.68,6.68s2.99,6.68,6.68,6.68h1.11c3.69,0,6.68,2.99,6.68,6.68s-2.99,6.68-6.68,6.68h-7.3c-3.69,0-6.68,2.99-6.68,6.68s2.99,6.68,6.68,6.68h35.36c3.69,0,6.68,2.99,6.68,6.68s-2.99,6.68-6.68,6.68h-23.06c-3.69,0-6.68,2.99-6.68,6.68s2.99,6.68,6.68,6.68h83.76c3.69,0,6.68-2.99,6.68-6.68s-2.99-6.68-6.68-6.68Z"/>
      </g>
      <g>
        <circle class="cls-2" cx="51.53" cy="54.2" r="39.39"/>
        <circle class="cls-2" cx="51.53" cy="54.25" r="33.62" transform="translate(-16.84 23.85) rotate(-22.5)"/>
        <circle class="cls-1" cx="51.21" cy="54.12" r="26.99" transform="translate(-13.36 16.94) rotate(-16.65)"/>
        <path class="cls-5" d="M35.74,54.2c0-12.98,9.17-23.82,21.39-26.4-1.81-.38-3.68-.58-5.6-.58-14.9,0-26.99,12.08-26.99,26.99s12.08,26.99,26.99,26.99c1.92,0,3.79-.2,5.6-.58-12.22-2.58-21.39-13.42-21.39-26.4Z"/>
        <path class="cls-3" d="M59.33,57.55c.73-1.41,17.89-34.69,10.25-38.66-1.76-.91-4.93-.91-12.36,8.91,1.16.27,2.31.61,3.45,1.04,4.28-5.46,6.63-6.85,7.35-6.94,1.21,1.94-1.58,14.66-11.67,34.09-10.08,19.43-18.87,29.03-21.16,29.16-.32-.58-.52-2.97,1.04-8.6-1.02-.68-1.97-1.42-2.87-2.21-3.17,10.54-1.42,12.96.26,13.83,1.48.77,4.05.94,9.61-5.51.61-.71,1.26-1.49,1.94-2.36,4.49-5.73,9.52-13.81,14.17-22.75Z"/>
      </g>
    </g>
  </g>
</svg>