<?xml version="1.0" encoding="UTF-8"?>
<svg id="Layer_2" xmlns="http://www.w3.org/2000/svg" viewBox="0 0 55.6 43.29">
  <defs>
    <style>
      .cls-1, .cls-2 {
        fill: #ff8367;
      }

      .cls-3 {
        fill: #110e42;
      }

      .cls-4 {
        fill: #c74a2e;
      }

      .cls-2 {
        opacity: .15;
      }
    </style>
  </defs>
  <g id="OBJECTS">
    <g>
      <g>
        <path class="cls-3" d="M28.72,6.79h-.14c1.88,0,3.4-1.52,3.4-3.4s-1.52-3.4-3.4-3.4h.14c-1.88,0-3.4,1.52-3.4,3.4s1.52,3.4,3.4,3.4Z"/>
        <path class="cls-3" d="M52.21,36.5h-6.56c-1.88,0-3.4-1.52-3.4-3.4s1.52-3.4,3.4-3.4h.57c1.88,0,3.4-1.52,3.4-3.4s-1.52-3.4-3.4-3.4h-14.82c-1.88,0-3.4-1.52-3.4-3.4s1.52-3.4,3.4-3.4h.57c1.88,0,3.4-1.52,3.4-3.4s-1.52-3.4-3.4-3.4H6.54c-1.88,0-3.4,1.52-3.4,3.4s1.52,3.4,3.4,3.4h.57c1.88,0,3.4,1.52,3.4,3.4s-1.52,3.4-3.4,3.4h-3.71c-1.88,0-3.4,1.52-3.4,3.4s1.52,3.4,3.4,3.4h17.97c1.88,0,3.4,1.52,3.4,3.4s-1.52,3.4-3.4,3.4h-11.72c-1.88,0-3.4,1.52-3.4,3.4s1.52,3.4,3.4,3.4h42.56c1.88,0,3.4-1.52,3.4-3.4s-1.52-3.4-3.4-3.4Z"/>
      </g>
      <g>
        <circle class="cls-2" cx="27.8" cy="26.09" r="17.2" transform="translate(-10.07 21.66) rotate(-36.51)"/>
        <circle class="cls-2" cx="27.8" cy="26.12" r="14.68" transform="translate(-4.4 46.58) rotate(-75.64)"/>
        <circle class="cls-1" cx="27.74" cy="26.08" r="11.96"/>
        <path class="cls-4" d="M33.22,29.1h-12.09c-.22-.85-.34-1.73-.37-2.64h10.22c.29,0,.52-.23.52-.52s-.23-.52-.52-.52h-10.21c.02-.43.07-.86.13-1.27h11.79c.29,0,.52-.23.52-.52s-.23-.52-.52-.52h-11.57c.33-1.3.88-2.51,1.6-3.59h7.02c.29,0,.52-.23.52-.52s-.23-.52-.52-.52h-6.25c1.69-2.04,4.04-3.51,6.73-4.08-.8-.17-1.63-.26-2.48-.26-6.61,0-11.96,5.36-11.96,11.96s5.36,11.96,11.96,11.96c.85,0,1.68-.09,2.48-.26-2.18-.46-4.13-1.52-5.69-2.99h5.22c.29,0,.52-.23.52-.52s-.23-.52-.52-.52h-6.22c-.52-.62-.97-1.29-1.35-2h11.05c.73,0,1.32-.59,1.32-1.32s-.59-1.32-1.32-1.32Z"/>
      </g>
    </g>
  </g>
</svg>