<?xml version="1.0" encoding="UTF-8"?>
<svg id="Layer_2" xmlns="http://www.w3.org/2000/svg" viewBox="0 0 34.4 34.4">
  <defs>
    <style>
      .cls-1, .cls-2 {
        fill: #ff8367;
      }

      .cls-3 {
        fill: #c74a2e;
      }

      .cls-2 {
        opacity: .15;
      }
    </style>
  </defs>
  <g id="OBJECTS">
    <g>
      <circle class="cls-2" cx="17.2" cy="17.2" r="17.2" transform="translate(-6.86 13.61) rotate(-36.51)"/>
      <circle class="cls-2" cx="17.2" cy="17.22" r="14.68" transform="translate(-3.75 29.61) rotate(-75.64)"/>
      <circle class="cls-1" cx="17.14" cy="17.18" r="11.96"/>
      <path class="cls-3" d="M22.62,20.2h-12.09c-.22-.85-.34-1.73-.37-2.64h10.22c.29,0,.52-.23.52-.52s-.23-.52-.52-.52h-10.21c.02-.43.07-.86.13-1.27h11.79c.29,0,.52-.23.52-.52s-.23-.52-.52-.52h-11.57c.33-1.3.88-2.51,1.6-3.59h7.02c.29,0,.52-.23.52-.52s-.23-.52-.52-.52h-6.25c1.69-2.04,4.04-3.51,6.73-4.08-.8-.17-1.63-.26-2.48-.26-6.61,0-11.96,5.36-11.96,11.96s5.36,11.96,11.96,11.96c.85,0,1.68-.09,2.48-.26-2.18-.46-4.13-1.52-5.69-2.99h5.22c.29,0,.52-.23.52-.52s-.23-.52-.52-.52h-6.22c-.52-.62-.97-1.29-1.35-2h11.05c.73,0,1.32-.59,1.32-1.32s-.59-1.32-1.32-1.32Z"/>
    </g>
  </g>
</svg>